<svg width="100" height="100" viewBox="0 0 100 100" fill="none" xmlns="http://www.w3.org/2000/svg">
<g clip-path="url(#clip0_56_2)">
<rect width="100" height="100" fill="white"/>
<g clip-path="url(#clip1_56_2)">
<path d="M48.3131 99.9557C48.2418 99.8877 47.3195 99.8037 46.124 99.7563C45.5301 99.7328 44.967 99.6899 44.8731 99.661C44.7791 99.6319 44.4275 99.5877 44.0918 99.5623C43.7561 99.5371 43.3092 99.4823 43.0988 99.4408C42.8883 99.3992 42.6356 99.3649 42.5373 99.3647C42.4389 99.3643 42.1826 99.3207 41.9678 99.2676C41.7529 99.2145 41.4893 99.1705 41.3818 99.1698C41.2744 99.169 41.0217 99.125 40.8203 99.0723C40.6189 99.0196 40.3881 98.9756 40.3076 98.9748C40.2272 98.9741 40.0219 98.9297 39.8516 98.8764C39.6813 98.8231 39.4719 98.7793 39.3859 98.7793C39.3002 98.7793 39.1051 98.7354 38.9522 98.6817C38.7994 98.628 38.6039 98.584 38.518 98.584C38.3676 98.584 38.0012 98.4887 37.3779 98.2877C37.2168 98.2358 37.041 98.1934 36.9873 98.1934C36.9336 98.1934 36.7578 98.151 36.5967 98.099C36.4355 98.0471 36.2049 97.9797 36.084 97.949C35.665 97.8434 35.3752 97.753 35.2221 97.6803C35.1375 97.6403 35.0246 97.6074 34.9711 97.6074C34.9178 97.6074 34.7781 97.5639 34.6611 97.5108C34.5439 97.4576 34.4043 97.4131 34.3506 97.4116C34.2969 97.41 34.165 97.3664 34.0576 97.3145C33.9502 97.2625 33.8127 97.2194 33.7522 97.2186C33.6916 97.2176 33.5602 97.1729 33.46 97.1192C33.3598 97.0655 33.233 97.0215 33.1781 97.0215C33.1232 97.0215 33.0344 96.9906 32.9807 96.953C32.9268 96.9155 32.7854 96.8582 32.666 96.8262C32.5467 96.7942 32.4053 96.7369 32.3514 96.6994C32.2977 96.6617 32.2147 96.6309 32.1668 96.6309C32.1188 96.6309 31.9977 96.5869 31.8975 96.5332C31.7973 96.4795 31.6705 96.4356 31.6156 96.4356C31.5607 96.4356 31.4725 96.4055 31.4195 96.369C31.3666 96.3323 31.2684 96.2867 31.2012 96.2676C31.134 96.2485 30.9803 96.1873 30.8594 96.1319C30.7385 96.0762 30.5518 95.993 30.4443 95.9469C30.3369 95.9008 30.1502 95.819 30.0293 95.7653C29.9084 95.7115 29.7326 95.634 29.6387 95.5932C29.0453 95.3348 28.7084 95.1799 28.6133 95.1223C28.573 95.0979 28.0676 94.8444 27.4902 94.559C26.9129 94.2735 26.3855 94.0088 26.3184 93.9707C26.2512 93.9324 25.9545 93.7674 25.6592 93.6035C25.3639 93.4399 25.0891 93.2846 25.0488 93.2584C25.0086 93.2324 24.9207 93.184 24.8535 93.1508C24.6092 93.0303 24.0273 92.666 23.9713 92.5987C23.9397 92.5606 23.8891 92.5293 23.8588 92.5293C23.8285 92.5293 23.6771 92.4414 23.5225 92.334C23.3678 92.2266 23.2295 92.1387 23.2152 92.1387C23.2012 92.1387 23.1299 92.0981 23.057 92.0483C22.9844 91.9985 22.716 91.8192 22.4609 91.6496C22.2059 91.4801 21.9014 91.2735 21.7844 91.1907C21.6672 91.1078 21.5215 91.0071 21.4604 90.9668C20.848 90.5637 20.3988 90.2367 19.6537 89.6522C18.4486 88.7061 18.3334 88.6127 17.7283 88.0912C17.498 87.893 17.1897 87.6291 17.043 87.5053C15.9143 86.552 13.448 84.0858 12.4945 82.9571C12.3709 82.8104 12.1072 82.502 11.9086 82.2717C11.3428 81.6149 10.0098 79.951 10.0098 79.9014C10.0098 79.8883 9.89297 79.7305 9.75 79.5506C9.60723 79.3707 9.40977 79.1028 9.31133 78.9551C9.2127 78.8074 9.05391 78.5766 8.9584 78.4424C8.50391 77.8041 7.95586 76.9752 7.87676 76.8067C7.85801 76.7664 7.75879 76.6125 7.65664 76.4649C7.55449 76.3172 7.4709 76.1715 7.4707 76.1412C7.4707 76.111 7.43691 76.0582 7.3957 76.0241C7.35449 75.9897 7.24356 75.8278 7.14961 75.6639C7.05547 75.5002 6.9584 75.3332 6.93379 75.293C6.90898 75.2528 6.71133 74.9012 6.49395 74.5117C6.27676 74.1223 6.06777 73.7489 6.02969 73.6817C5.92363 73.4957 4.76211 71.1553 4.62402 70.8496C4.46211 70.4912 4.19648 69.8891 4.05332 69.5557C4.00703 69.4483 3.92383 69.2615 3.86816 69.1407C3.8127 69.0198 3.75156 68.866 3.73242 68.7989C3.71328 68.7317 3.66777 68.6334 3.63105 68.5805C3.59453 68.5276 3.56445 68.442 3.56445 68.3905C3.56445 68.3391 3.52363 68.2065 3.47363 68.0961C3.3875 67.9061 3.35605 67.8239 3.19238 67.3584C3.15449 67.251 3.09102 67.1049 3.05098 67.0336C3.01113 66.9621 2.97852 66.8631 2.97852 66.8131C2.97852 66.7631 2.93457 66.6403 2.88086 66.5401C2.82715 66.4399 2.78242 66.3082 2.78164 66.2477C2.78066 66.1871 2.7375 66.0498 2.68555 65.9424C2.63359 65.835 2.59004 65.7032 2.58848 65.6494C2.58691 65.5957 2.54238 65.4561 2.48926 65.3389C2.43613 65.2219 2.39258 65.0823 2.39258 65.0289C2.39258 64.9756 2.35977 64.8625 2.31973 64.778C2.24766 64.626 2.15938 64.3436 2.05039 63.916C2.01953 63.7951 1.95391 63.5535 1.9043 63.3789C1.85469 63.2043 1.79063 62.9682 1.76172 62.8539C1.64902 62.41 1.59668 62.2207 1.50801 61.9352C1.45742 61.7721 1.41602 61.5682 1.41602 61.4823C1.41602 61.3961 1.37207 61.2008 1.31836 61.0479C1.26465 60.8951 1.2207 60.6973 1.2207 60.6084C1.2207 60.5196 1.17676 60.3219 1.12305 60.169C1.06934 60.0162 1.0252 59.8244 1.025 59.743C1.0248 59.6614 0.980859 59.4121 0.927344 59.1889C0.873828 58.9657 0.829883 58.702 0.829688 58.603C0.829492 58.5039 0.785547 58.2403 0.732031 58.017C0.678516 57.7938 0.634766 57.5383 0.634766 57.4496C0.634766 57.3608 0.592773 57.0381 0.541797 56.7324C0.490625 56.4268 0.435547 55.9676 0.419531 55.7119C0.40332 55.4563 0.367383 55.1705 0.339453 55.0772C0.311328 54.9836 0.268164 54.4262 0.243164 53.8381C0.192578 52.6401 0.110742 51.7567 0.0443359 51.6869C0.0197266 51.6612 0 50.9145 0 50C0 49.0856 0.0197266 48.3389 0.0443359 48.3131C0.112305 48.2418 0.196094 47.3196 0.24375 46.124C0.267188 45.5301 0.310156 44.967 0.339063 44.8731C0.367969 44.7791 0.412305 44.4276 0.437695 44.0918C0.462891 43.7561 0.517773 43.3092 0.55918 43.0989C0.600781 42.8883 0.635156 42.6356 0.635352 42.5373C0.635742 42.4389 0.679297 42.1826 0.732422 41.9678C0.785547 41.753 0.829492 41.4893 0.830273 41.3819C0.831055 41.2744 0.875 41.0217 0.927734 40.8203C0.980469 40.619 1.02441 40.3881 1.0252 40.3076C1.02598 40.2272 1.07031 40.0219 1.12363 39.8516C1.17715 39.6813 1.2207 39.4719 1.2207 39.386C1.2207 39.3002 1.26465 39.1051 1.31836 38.9522C1.37207 38.7994 1.41602 38.6039 1.41602 38.518C1.41602 38.3676 1.51113 38.0012 1.7123 37.378C1.76426 37.2168 1.80664 37.041 1.80664 36.9873C1.80664 36.9336 1.84902 36.7578 1.90098 36.5967C1.95293 36.4356 2.02051 36.2049 2.05098 36.084C2.15664 35.6651 2.24707 35.3752 2.31973 35.2221C2.35977 35.1375 2.39258 35.0246 2.39258 34.9711C2.39258 34.9178 2.43613 34.7781 2.48926 34.6612C2.54238 34.544 2.58691 34.4043 2.58848 34.3506C2.59004 34.2969 2.63359 34.1651 2.68555 34.0576C2.7375 33.9502 2.78066 33.8127 2.78164 33.7522C2.78242 33.6916 2.82715 33.5602 2.88086 33.46C2.93457 33.3598 2.97852 33.233 2.97852 33.1781C2.97852 33.1233 3.00938 33.0344 3.04707 32.9807C3.08457 32.9268 3.1416 32.7854 3.17383 32.666C3.20605 32.5467 3.26309 32.4053 3.30059 32.3514C3.33828 32.2977 3.36914 32.2147 3.36914 32.1668C3.36914 32.1188 3.41309 31.9977 3.4668 31.8975C3.52051 31.7973 3.56445 31.6705 3.56445 31.6156C3.56445 31.5608 3.59453 31.4725 3.63105 31.4196C3.66777 31.3666 3.71328 31.2684 3.73242 31.2012C3.75156 31.134 3.8127 30.9803 3.86816 30.8594C3.92383 30.7385 4.01016 30.5463 4.05996 30.4321C4.10957 30.318 4.19141 30.1313 4.24141 30.0172C4.2916 29.903 4.36602 29.7326 4.40684 29.6387C4.66523 29.0453 4.82012 28.7084 4.87773 28.6133C4.90215 28.5731 5.15566 28.0676 5.44102 27.4903C5.72656 26.9129 5.99121 26.3856 6.0293 26.3184C6.06758 26.2512 6.23262 25.9545 6.39629 25.6592C6.56016 25.3639 6.71543 25.0891 6.7416 25.0489C6.76758 25.0086 6.81602 24.9207 6.84922 24.8535C6.96973 24.6092 7.33399 24.0274 7.40137 23.9713C7.43945 23.9397 7.4707 23.8891 7.4707 23.8588C7.4709 23.8285 7.55859 23.6772 7.66602 23.5225C7.77344 23.3678 7.86133 23.2295 7.86133 23.2153C7.86133 23.2012 7.90195 23.1299 7.95176 23.0571C8.00156 22.9844 8.18086 22.716 8.35039 22.461C8.51992 22.2059 8.72656 21.9014 8.80938 21.7844C8.89219 21.6672 8.99297 21.5215 9.0332 21.4604C9.43633 20.8481 9.76328 20.3989 10.3479 19.6537C11.2939 18.4487 11.3873 18.3334 11.9086 17.7283C12.1072 17.4981 12.3709 17.1897 12.4945 17.043C13.448 15.9143 15.9143 13.4481 17.043 12.4946C17.1897 12.3709 17.498 12.1073 17.7283 11.9086C18.3852 11.3428 20.049 10.0098 20.0986 10.0098C20.1117 10.0098 20.2695 9.89299 20.4494 9.75002C20.6291 9.60725 20.8973 9.40979 21.0449 9.31135C21.1926 9.21272 21.4234 9.05393 21.5576 8.95842C22.1959 8.50393 23.0246 7.95588 23.1934 7.87678C23.2336 7.85803 23.3875 7.75881 23.5352 7.65667C23.6828 7.55452 23.8285 7.47092 23.8588 7.47073C23.8891 7.47073 23.9418 7.43694 23.976 7.39573C24.0104 7.35452 24.1723 7.24358 24.3361 7.14963C24.4998 7.05549 24.6668 6.95842 24.707 6.93381C24.7473 6.90901 25.0988 6.71135 25.4883 6.49397C25.8777 6.27678 26.2512 6.0678 26.3184 6.02971C26.5043 5.92366 28.8447 4.76213 29.1504 4.62405C29.5088 4.46213 30.1109 4.19651 30.4443 4.05334C30.5518 4.00706 30.7385 3.92385 30.8594 3.86819C30.9803 3.81272 31.134 3.75159 31.2012 3.73245C31.2684 3.71331 31.3666 3.6678 31.4195 3.63108C31.4725 3.59456 31.558 3.56448 31.6096 3.56448C31.6611 3.56448 31.7934 3.52366 31.9037 3.47366C32.0939 3.38752 32.1762 3.35608 32.6416 3.19241C32.749 3.15452 32.8951 3.09104 32.9664 3.051C33.0379 3.01116 33.1369 2.97854 33.1869 2.97854C33.2369 2.97854 33.3598 2.93459 33.46 2.88088C33.5602 2.82717 33.6916 2.78245 33.7522 2.78167C33.8127 2.78069 33.9502 2.73752 34.0576 2.68557C34.165 2.63362 34.2969 2.59006 34.3506 2.5885C34.4043 2.58694 34.5439 2.54241 34.6611 2.48928C34.7781 2.43616 34.9178 2.3926 34.9711 2.3926C35.0246 2.3926 35.1375 2.35979 35.2221 2.31975C35.374 2.24768 35.6564 2.1594 36.084 2.05042C36.2049 2.01956 36.4465 1.95393 36.6211 1.90432C36.7957 1.85471 37.0373 1.78909 37.1582 1.75842C37.6168 1.64182 37.7772 1.59749 38.065 1.50803C38.2279 1.45745 38.4318 1.41604 38.5178 1.41604C38.6039 1.41604 38.7994 1.37209 38.9522 1.31838C39.1051 1.26467 39.3027 1.22073 39.3916 1.22073C39.4805 1.22073 39.6783 1.17678 39.8311 1.12307C39.984 1.06936 40.1756 1.02522 40.257 1.02502C40.3387 1.02483 40.5879 0.980884 40.8111 0.927368C41.0344 0.873853 41.2981 0.829907 41.3971 0.829712C41.4961 0.829517 41.7598 0.785571 41.983 0.732056C42.2063 0.67854 42.4617 0.63479 42.5504 0.63479C42.6393 0.63479 42.9619 0.592798 43.2676 0.541821C43.5732 0.490649 44.0324 0.435571 44.2881 0.419556C44.5438 0.403345 44.8295 0.367407 44.9229 0.339478C45.0164 0.311353 45.5738 0.268188 46.1619 0.243188C47.36 0.192603 48.2434 0.110767 48.3131 0.0443604C48.3738 -0.0136475 51.6262 -0.0136475 51.6869 0.0443604C51.7582 0.112329 52.6805 0.196118 53.8758 0.243774C54.4699 0.267212 55.033 0.310181 55.127 0.339087C55.2209 0.367993 55.5725 0.412329 55.9082 0.43772C56.2439 0.462915 56.6908 0.517798 56.9012 0.559204C57.1117 0.600806 57.3645 0.635181 57.4627 0.635376C57.5611 0.635767 57.8174 0.679321 58.0322 0.732446C58.2471 0.785571 58.5107 0.829517 58.6182 0.830298C58.7256 0.831079 58.9783 0.875024 59.1797 0.927759C59.3811 0.980493 59.6117 1.02444 59.6924 1.02522C59.7731 1.026 59.9781 1.07034 60.1484 1.12366C60.3186 1.17717 60.5281 1.22073 60.6141 1.22073C60.6998 1.22073 60.8951 1.26467 61.0479 1.31838C61.2008 1.37209 61.3961 1.41604 61.482 1.41604C61.6324 1.41604 61.9988 1.51116 62.6221 1.71233C62.7832 1.76428 62.959 1.80667 63.0127 1.80667C63.0664 1.80667 63.2422 1.84905 63.4033 1.901C63.5645 1.95295 63.7951 2.02053 63.916 2.051C64.335 2.15667 64.6248 2.24709 64.7779 2.31975C64.8625 2.35979 64.9756 2.3926 65.0289 2.3926C65.0822 2.3926 65.2219 2.43616 65.3389 2.48928C65.4561 2.54241 65.5957 2.58694 65.6494 2.5885C65.7031 2.59006 65.835 2.63362 65.9424 2.68557C66.0498 2.73752 66.1871 2.78069 66.2477 2.78167C66.3082 2.78245 66.4398 2.82717 66.54 2.88088C66.6402 2.93459 66.7611 2.97854 66.8086 2.97854C66.8561 2.97854 66.977 3.02249 67.0772 3.0762C67.1773 3.12991 67.2902 3.17385 67.3279 3.17385C67.3656 3.17385 67.4869 3.21467 67.5973 3.26467C67.7076 3.31467 67.8693 3.38069 67.9566 3.41116C68.0438 3.44182 68.1867 3.49182 68.2738 3.52249C68.3611 3.55295 68.5229 3.61897 68.6332 3.66897C68.7436 3.71897 68.8602 3.75979 68.8922 3.75979C68.9242 3.75979 69.0316 3.801 69.1309 3.85159C69.2957 3.93518 69.4043 3.98459 69.9219 4.21233C71.0533 4.70979 71.2793 4.81252 71.3867 4.87776C71.427 4.90217 71.9324 5.15569 72.5098 5.44104C73.0871 5.72659 73.6145 5.99124 73.6816 6.02932C73.7488 6.0676 74.0455 6.23264 74.3408 6.39631C74.6361 6.56018 74.9109 6.71545 74.9512 6.74163C74.9914 6.7676 75.0793 6.81604 75.1465 6.84924C75.3908 6.96975 75.9727 7.33401 76.0287 7.40139C76.0604 7.43948 76.1109 7.47073 76.1412 7.47073C76.1715 7.47092 76.3229 7.55862 76.4775 7.66604C76.6322 7.77346 76.7705 7.86135 76.7848 7.86135C76.799 7.86135 76.8701 7.90198 76.943 7.95178C77.0156 8.00159 77.284 8.18088 77.5391 8.35042C77.7941 8.51995 78.0986 8.72659 78.2156 8.8094C78.3326 8.89221 78.4785 8.99299 78.5397 9.03323C79.152 9.43635 79.6012 9.76331 80.3463 10.3479C81.5514 11.294 81.6668 11.3873 82.2717 11.9086C82.502 12.1073 82.8104 12.3709 82.957 12.4946C84.0971 13.4576 86.5512 15.9137 87.5244 17.0656C87.6586 17.2244 87.9127 17.5201 88.0891 17.7227C88.424 18.1074 89.9902 20.0598 89.9902 20.0924C89.9902 20.1028 90.1221 20.2862 90.2832 20.5C90.4443 20.7139 90.5762 20.9043 90.5762 20.9235C90.5762 20.9426 90.6608 21.0602 90.7643 21.1846C90.8678 21.3092 90.9611 21.435 90.9719 21.4643C90.9824 21.4934 91.1076 21.6801 91.25 21.8793C91.5711 22.328 92.1387 23.1946 92.1387 23.236C92.1387 23.2528 92.2266 23.3932 92.334 23.5479C92.4414 23.7026 92.5293 23.8401 92.5293 23.8535C92.5293 23.867 92.6022 23.9821 92.6912 24.1094C92.7801 24.2367 92.8865 24.4069 92.9273 24.4873C92.9682 24.5678 93.0527 24.7217 93.1154 24.8291C93.1781 24.9365 93.2701 25.1014 93.3201 25.1953C93.5254 25.5821 93.777 26.0207 93.8152 26.0584C93.8379 26.0805 93.8867 26.1647 93.9242 26.2451C93.9615 26.3256 94.0111 26.4246 94.0344 26.4649C94.0768 26.5383 94.1471 26.6731 94.2383 26.8555C94.265 26.9092 94.3092 26.9971 94.3359 27.0508C94.3627 27.1045 94.4033 27.1869 94.426 27.234C94.4486 27.2809 94.4926 27.3688 94.5236 27.4293C94.5547 27.4897 94.6055 27.5885 94.6365 27.6489C94.6674 27.7094 94.7115 27.7918 94.7346 27.8321C94.7574 27.8723 94.8002 27.9602 94.8299 28.0274C94.8594 28.0946 94.9033 28.1824 94.9275 28.2227C94.9516 28.2629 94.9955 28.3508 95.0252 28.418C95.0875 28.5596 95.1303 28.6481 95.2027 28.7842C95.2313 28.8379 95.3131 29.0246 95.3848 29.1992C95.5387 29.5737 95.6371 29.7932 95.7598 30.036C95.8092 30.1336 95.85 30.2434 95.8506 30.2801C95.8514 30.3166 95.8947 30.4016 95.9473 30.4688C95.9998 30.536 96.0432 30.6242 96.044 30.6649C96.0445 30.7055 96.0889 30.8207 96.1426 30.9209C96.1963 31.0211 96.2402 31.1373 96.2402 31.1791C96.2402 31.2209 96.2818 31.3364 96.3326 31.4358C96.3834 31.535 96.4473 31.6822 96.4744 31.7627C96.5959 32.1219 96.6512 32.2625 96.7357 32.4285C96.7856 32.5262 96.8262 32.6319 96.8262 32.6631C96.8262 32.6946 96.8676 32.8125 96.9184 32.925C96.9689 33.0377 97.0268 33.2069 97.0467 33.3008C97.0666 33.3947 97.1129 33.5151 97.1498 33.568C97.1867 33.6209 97.2176 33.7199 97.2186 33.7877C97.2193 33.8557 97.2625 33.999 97.3145 34.1065C97.3664 34.2139 97.4104 34.3457 97.4121 34.3994C97.4139 34.4531 97.4578 34.585 97.5098 34.6924C97.5617 34.7998 97.6057 34.9317 97.6074 34.9854C97.6092 35.0391 97.6531 35.1709 97.7051 35.2783C97.757 35.3858 97.8002 35.5223 97.801 35.5817C97.802 35.641 97.8445 35.8059 97.8959 35.9479C97.9471 36.0899 98.0027 36.2875 98.0197 36.3871C98.0367 36.4867 98.0826 36.6295 98.1217 36.7045C98.1607 36.7795 98.193 36.8957 98.193 36.9629C98.1932 37.0301 98.2361 37.2168 98.2883 37.378C98.3865 37.6817 98.5371 38.2727 98.6244 38.6963C98.652 38.8305 98.6981 39.0449 98.727 39.1723C98.7559 39.2998 98.8 39.4977 98.825 39.6117C98.8502 39.726 98.893 39.9072 98.9199 40.0147C98.9658 40.1969 99.0139 40.4676 99.1283 41.1865C99.1539 41.3477 99.217 41.6992 99.2684 41.9678C99.3197 42.2364 99.3748 42.6143 99.3906 42.8076C99.4065 43.001 99.4408 43.2317 99.4668 43.3203C99.4928 43.409 99.5354 43.7561 99.5615 44.0918C99.5877 44.4276 99.6318 44.7791 99.6596 44.8731C99.6875 44.967 99.7309 45.5274 99.7559 46.1182C99.8121 47.4453 99.8895 48.3465 99.9524 48.4094C100.019 48.476 100.016 51.4414 99.9492 51.5662C99.883 51.6897 99.8137 52.4969 99.7566 53.8067C99.7315 54.3852 99.6777 55.0342 99.6373 55.249C99.5971 55.4639 99.5633 55.7647 99.5623 55.9172C99.5613 56.0699 99.527 56.3547 99.4858 56.55C99.4447 56.7455 99.3984 57.0711 99.3826 57.2735C99.3672 57.476 99.3129 57.8051 99.2621 58.0049C99.2113 58.2045 99.1699 58.4588 99.1699 58.5698C99.1699 58.6807 99.1354 58.8877 99.0932 59.0301C99.0508 59.1723 98.9988 59.4346 98.9774 59.6127C98.9428 59.901 98.8963 60.1205 98.7229 60.8155C98.6961 60.9229 98.6525 61.1207 98.6262 61.2549C98.6 61.3891 98.5561 61.5869 98.5285 61.6944C98.5012 61.8018 98.4561 61.9996 98.4283 62.1338C98.4006 62.268 98.3365 62.4953 98.2857 62.6387C98.2348 62.7821 98.1934 62.9535 98.1934 63.0196C98.1934 63.0856 98.1623 63.1996 98.1244 63.2733C98.0863 63.3465 98.0402 63.494 98.0221 63.6004C98.0039 63.7069 97.9471 63.9102 97.8959 64.0522C97.8445 64.1942 97.802 64.3588 97.801 64.4184C97.8002 64.4778 97.757 64.6143 97.7051 64.7217C97.6531 64.8291 97.6092 64.961 97.6074 65.0147C97.6057 65.0684 97.5617 65.2002 97.5098 65.3076C97.4578 65.4151 97.4139 65.5469 97.4121 65.6006C97.4104 65.6543 97.3664 65.7862 97.3145 65.8936C97.2625 66.001 97.2193 66.1444 97.2186 66.2123C97.2176 66.2801 97.1867 66.3791 97.1498 66.4321C97.1129 66.485 97.0666 66.6053 97.0467 66.6992C97.0268 66.7932 96.9689 66.9623 96.9184 67.075C96.8676 67.1875 96.8262 67.3055 96.8262 67.3369C96.8262 67.3682 96.7856 67.4739 96.7357 67.5715C96.6498 67.7403 96.6213 67.8125 96.4836 68.2129C96.4514 68.3069 96.3834 68.4651 96.3326 68.5645C96.2818 68.6637 96.2402 68.7791 96.2402 68.8209C96.2402 68.8627 96.1963 68.9789 96.1426 69.0791C96.0889 69.1793 96.0445 69.2946 96.044 69.3352C96.0432 69.3758 95.9998 69.4641 95.9473 69.5313C95.8947 69.5985 95.8514 69.6834 95.8506 69.7199C95.85 69.7567 95.8092 69.8664 95.7598 69.9641C95.6371 70.2069 95.5387 70.4264 95.3848 70.8008C95.2561 71.1145 95.2303 71.1713 95.1301 71.3623C95.102 71.416 95.0547 71.5149 95.0252 71.5821C94.9955 71.6492 94.9516 71.7371 94.9275 71.7774C94.9033 71.8176 94.8594 71.9055 94.8299 71.9727C94.8002 72.0399 94.7574 72.1278 94.7346 72.168C94.6922 72.2426 94.6186 72.3838 94.5313 72.5586C94.5045 72.6123 94.457 72.7057 94.426 72.766C94.3949 72.8266 94.3477 72.9199 94.3207 72.9737C94.2938 73.0274 94.2533 73.1098 94.2307 73.1567C94.1682 73.2866 94.0815 73.4535 94.0344 73.5352C94.0111 73.5754 93.9582 73.6742 93.9166 73.7549C93.875 73.8356 93.7885 73.9893 93.7242 74.0967C93.6057 74.2951 93.5035 74.478 93.3152 74.8291C93.0768 75.2742 92.9006 75.5766 92.732 75.8301C92.527 76.1391 92.4963 76.1879 92.3447 76.4461C92.2836 76.5504 92.1957 76.6953 92.1494 76.768C91.6826 77.5026 91.4877 77.7963 91.2477 78.1264C91.0932 78.3387 90.9668 78.5264 90.9668 78.5438C90.9668 78.5612 90.8789 78.6803 90.7715 78.8086C90.6641 78.9369 90.5762 79.0569 90.5762 79.0752C90.5762 79.1641 88.7186 81.5561 88.0897 82.2774C87.9131 82.4799 87.6586 82.7756 87.5244 82.9346C86.5512 84.0864 84.0971 86.5422 82.957 87.5053C82.8104 87.6291 82.502 87.893 82.2717 88.0912C81.6148 88.6573 79.951 89.9903 79.9014 89.9903C79.8883 89.9903 79.7305 90.1071 79.5506 90.2498C79.3707 90.3928 79.1027 90.5903 78.9551 90.6887C78.8074 90.7871 78.5766 90.9461 78.4424 91.0416C77.8041 91.4961 76.9752 92.0442 76.8066 92.1233C76.7664 92.142 76.6125 92.2412 76.4648 92.3434C76.3172 92.4455 76.1715 92.5293 76.1412 92.5293C76.1109 92.5293 76.0582 92.5631 76.024 92.6043C75.9897 92.6455 75.8277 92.7565 75.6639 92.8504C75.5002 92.9446 75.3332 93.0416 75.293 93.0664C75.2527 93.0908 74.9012 93.2889 74.5117 93.5059C74.1223 93.7233 73.7488 93.9323 73.6816 93.9703C73.4957 94.0764 71.1553 95.2379 70.8496 95.376C70.4912 95.5379 69.8891 95.8035 69.5557 95.9469C69.4482 95.993 69.2615 96.0762 69.1406 96.1319C69.0197 96.1873 68.866 96.2485 68.7988 96.2676C68.7316 96.2867 68.6334 96.3323 68.5805 96.369C68.5275 96.4055 68.442 96.4356 68.3904 96.4356C68.3391 96.4356 68.2065 96.4764 68.0961 96.5264C67.9061 96.6125 67.8238 96.644 67.3584 96.8076C67.251 96.8455 67.1049 96.909 67.0336 96.9489C66.9621 96.9889 66.8631 97.0215 66.8131 97.0215C66.7631 97.0215 66.6402 97.0655 66.54 97.1192C66.4398 97.1729 66.3082 97.2176 66.2477 97.2186C66.1871 97.2194 66.0498 97.2625 65.9424 97.3145C65.835 97.3664 65.7031 97.41 65.6494 97.4116C65.5957 97.4131 65.4561 97.4576 65.3389 97.5108C65.2219 97.5639 65.0822 97.6074 65.0289 97.6074C64.9756 97.6074 64.8625 97.6403 64.7779 97.6803C64.626 97.7524 64.3436 97.8407 63.916 97.9496C63.7951 97.9805 63.5535 98.0461 63.3789 98.0957C63.2043 98.1453 62.9627 98.211 62.8418 98.2416C62.3832 98.3582 62.2227 98.4026 61.9352 98.492C61.7721 98.5426 61.5682 98.584 61.4822 98.584C61.3961 98.584 61.2008 98.628 61.0479 98.6817C60.8951 98.7354 60.6973 98.7793 60.6084 98.7793C60.5195 98.7793 60.3219 98.8233 60.169 98.877C60.0162 98.9307 59.8244 98.9748 59.743 98.975C59.6613 98.9752 59.4121 99.0192 59.1889 99.0727C58.9656 99.1262 58.702 99.1701 58.6029 99.1703C58.5039 99.1705 58.2402 99.2145 58.017 99.268C57.7938 99.3215 57.5383 99.3653 57.4496 99.3653C57.3607 99.3653 57.0381 99.4071 56.7324 99.4582C56.4268 99.5094 55.9676 99.5645 55.7119 99.5805C55.4563 99.5967 55.1705 99.6326 55.0772 99.6606C54.9836 99.6887 54.4262 99.7319 53.8381 99.7569C52.64 99.8074 51.7566 99.8893 51.6869 99.9557C51.6611 99.9803 50.9145 100 50 100C49.0856 100 48.3389 99.9803 48.3131 99.9557ZM65.1123 76.0959C65.4883 76.0545 65.9387 75.9862 66.1133 75.9438C66.2879 75.9014 66.5625 75.8489 66.7236 75.827C66.8848 75.8051 67.0982 75.753 67.1982 75.711C67.2981 75.6692 67.4266 75.6348 67.4836 75.6348C67.5406 75.6348 67.6457 75.6024 67.7172 75.5625C67.8541 75.4864 68.3252 75.3162 68.591 75.2469C68.8178 75.1879 70.558 74.3108 70.7275 74.1699C70.7736 74.1319 70.8524 74.0776 70.9029 74.0498C71.2691 73.8471 71.9691 73.3096 72.6318 72.7221C73.5844 71.8778 75.7518 69.7028 76 69.3424C76.2029 69.0481 76.3506 68.6528 76.3969 68.2807C76.4328 67.9918 76.2662 67.3297 76.1152 67.16C76.0658 67.1045 76.0254 67.0432 76.0254 67.0237C76.0254 67.0039 75.9395 66.8737 75.8348 66.7338C75.592 66.4104 66.2303 57.0658 66.0588 56.976C65.9885 56.9393 65.8127 56.8444 65.6682 56.7653C65.4232 56.6311 65.3686 56.6211 64.8682 56.6188C63.8367 56.6139 64.0479 56.436 59.0547 61.5155C57.9355 62.6539 57.4508 63.092 57.1289 63.2557C56.5803 63.5348 56.3879 63.6231 56.3287 63.6231C56.2922 63.6231 56.1553 63.6715 56.0242 63.7307C55.8049 63.8299 55.7115 63.8383 54.834 63.8379C53.9561 63.8375 53.8641 63.8291 53.6525 63.7303C53.5266 63.6713 53.3883 63.6231 53.3453 63.6231C53.2707 63.6231 52.7676 63.3948 52.5639 63.2684C52.2877 63.0973 51.8516 62.7965 51.6272 62.6227C51.4881 62.5149 51.1272 62.251 50.8248 62.0362C50.0605 61.493 47.9605 59.8121 47.1652 59.1073C46.8012 58.7846 46.3619 58.3996 46.1891 58.252C45.2486 57.4487 42.0762 54.2748 41.2109 53.2717C41.0633 53.1004 40.7447 52.7379 40.5029 52.4662C39.7141 51.5789 37.8254 49.2397 37.5488 48.8073C37.5086 48.7442 37.3744 48.5639 37.2508 48.4065C37.1272 48.249 36.9891 48.0541 36.9439 47.9737C36.899 47.8932 36.7977 47.7172 36.7188 47.583C36.6398 47.4489 36.5746 47.3059 36.5736 47.2656C36.5725 47.2254 36.5361 47.1264 36.4928 47.0459C36.4041 46.8817 36.3045 46.4203 36.2238 45.8008C36.1744 45.4219 36.1807 45.3324 36.2947 44.7744C36.3637 44.4383 36.4541 44.0977 36.4957 44.0176C36.5375 43.9375 36.5719 43.843 36.5721 43.8072C36.5725 43.7104 36.951 43.076 37.1744 42.7979C37.2822 42.6637 38.6604 41.2574 40.2371 39.6729C43.7037 36.1893 43.577 36.3533 43.5756 35.3516C43.5744 34.6242 43.5824 34.6492 43.1539 34.0274C42.8846 33.6367 33.6895 24.4748 33.3008 24.2098C33.0732 24.0549 32.8602 23.9606 32.5482 23.8774L32.1129 23.7612L31.6738 23.8756C30.9814 24.0563 30.7656 24.2305 28.9063 26.1082C26.948 28.0858 26.5039 28.5895 25.8582 29.5647C25.1957 30.5653 25.3127 30.352 24.6914 31.6895C24.4641 32.1789 24.3652 32.4332 24.3652 32.5289C24.3652 32.5811 24.3393 32.6717 24.3074 32.7303C24.2756 32.7889 24.2121 32.9688 24.166 33.1299C24.1201 33.291 24.0592 33.4889 24.0307 33.5694C23.9795 33.7137 23.8395 34.4147 23.7279 35.083C23.5588 36.0971 23.5404 37.4235 23.682 38.3711C23.7355 38.7293 23.7793 39.1051 23.7793 39.2057C23.7793 39.3067 23.8232 39.5168 23.877 39.6729C23.9307 39.8289 23.9746 40.0047 23.9746 40.0635C23.9746 40.1223 24.0186 40.2981 24.0723 40.4541C24.126 40.6102 24.1699 40.7951 24.1699 40.8653C24.1699 40.9354 24.2139 41.0746 24.2676 41.1748C24.3213 41.275 24.3652 41.3959 24.3652 41.4434C24.3652 41.491 24.4092 41.6117 24.4629 41.7119C24.5166 41.8121 24.5605 41.9268 24.5605 41.9664C24.5605 42.0061 24.6018 42.1324 24.6522 42.2473C24.7023 42.3621 24.7707 42.533 24.8037 42.627C24.9531 43.0512 25.0092 43.1989 25.0754 43.3424C25.1145 43.427 25.1465 43.5262 25.1465 43.5629C25.1465 43.5994 25.1904 43.7114 25.2441 43.8115C25.2979 43.9117 25.3418 44.028 25.3418 44.0697C25.3418 44.1115 25.3895 44.2379 25.4479 44.3508C25.6195 44.6826 25.6344 44.7137 25.8268 45.1416C26.0818 45.7086 26.1275 45.811 26.2141 46.0082C26.433 46.5078 26.7729 47.2276 26.8535 47.3633C26.8775 47.4035 26.9111 47.4696 26.9279 47.5098C26.9449 47.55 27.0211 47.693 27.0975 47.8272C27.1738 47.9614 27.3162 48.225 27.4141 48.4131C27.5119 48.6012 27.6479 48.8537 27.7162 48.9746C27.7848 49.0955 27.9168 49.3371 28.0098 49.5117C28.1029 49.6864 28.2211 49.8951 28.2727 49.9756C28.3242 50.0563 28.4164 50.2074 28.4775 50.3117C28.6475 50.6014 28.9564 51.0862 29.157 51.3774C29.207 51.4502 29.248 51.5219 29.248 51.5367C29.248 51.5514 29.326 51.6744 29.4211 51.8098C29.5164 51.9453 29.6154 52.1043 29.641 52.1633C29.6668 52.2223 29.7633 52.3694 29.8553 52.4903C29.9475 52.6112 30.0244 52.7348 30.026 52.7651C30.0279 52.7953 30.0604 52.8457 30.0981 52.8772C30.1361 52.9086 30.2912 53.1147 30.443 53.335C30.5947 53.5551 30.8607 53.933 31.0344 54.1748C31.2078 54.4166 31.3647 54.6473 31.3826 54.6875C31.4006 54.7278 31.6746 55.0862 31.9918 55.4836C32.309 55.8811 32.5684 56.2199 32.5684 56.2364C32.5684 56.2528 32.6014 56.301 32.642 56.3436C32.6824 56.3862 32.9059 56.6627 33.1383 56.958C33.3707 57.2533 33.7281 57.6819 33.9324 57.9102C34.1369 58.1385 34.402 58.4461 34.5215 58.5938C35.4799 59.7776 38.9459 63.2867 40.2588 64.403C40.393 64.517 40.5689 64.6682 40.6494 64.7389C40.7299 64.8096 40.9277 64.9758 41.0889 65.1082C41.25 65.2407 41.4813 65.4387 41.6027 65.5481C41.724 65.6574 42.0291 65.9119 42.2805 66.1133C42.5316 66.3147 42.7723 66.518 42.815 66.5649C42.8578 66.6119 42.9107 66.6504 42.9328 66.6504C42.9549 66.6504 43.1422 66.7828 43.3492 66.9446C44.4764 67.8252 44.7285 68.0176 44.7559 68.0176C44.7727 68.0176 44.8883 68.1 45.0129 68.2008C45.1377 68.3014 45.277 68.4059 45.3225 68.4326C45.368 68.4594 45.6975 68.6805 46.0547 68.9235C47.5002 69.9074 48.0949 70.2994 48.291 70.3979C48.3582 70.4315 48.4791 70.5022 48.5596 70.5553C48.64 70.6082 48.783 70.6969 48.877 70.7524C48.9709 70.8078 49.1285 70.9018 49.227 70.9614C49.3256 71.0207 49.5453 71.1526 49.7152 71.2545C49.8854 71.3563 50.0672 71.466 50.1193 71.4987C50.5527 71.7686 50.9113 71.9565 52.3438 72.6641C54.2348 73.5981 54.4106 73.6817 54.484 73.6817C54.5342 73.6817 54.6658 73.7364 55.2055 73.9813C55.3158 74.0313 55.4313 74.0723 55.4621 74.0723C55.4928 74.0723 55.6 74.1162 55.7002 74.1699C55.8004 74.2237 55.9102 74.2676 55.9443 74.2676C55.9783 74.2676 56.0883 74.3115 56.1885 74.3653C56.2887 74.419 56.4039 74.4631 56.4445 74.4633C56.4852 74.4635 56.5844 74.5073 56.665 74.5606C56.7457 74.6139 56.85 74.6576 56.8971 74.6578C56.9443 74.658 57.0648 74.7022 57.165 74.7559C57.2652 74.8096 57.3981 74.8535 57.4602 74.8535C57.5223 74.8535 57.6383 74.8873 57.718 74.9283C57.7975 74.9696 57.9557 75.0229 58.0695 75.0467C58.1834 75.0707 58.3863 75.1272 58.5205 75.1723C58.6547 75.2174 58.8305 75.2766 58.9111 75.3037C58.9918 75.3309 59.1785 75.386 59.3262 75.4258C59.4738 75.4658 59.6168 75.5157 59.6436 75.5366C59.6703 75.5574 59.8027 75.5977 59.9375 75.6262C60.0723 75.6545 60.2482 75.7119 60.3281 75.7535C60.4082 75.7953 60.5506 75.8301 60.6445 75.8309C60.7385 75.8317 60.9787 75.8758 61.1783 75.9289C61.3779 75.9821 61.6307 76.0256 61.7398 76.0258C61.849 76.0258 62.0264 76.0506 62.1338 76.0807C62.374 76.1481 63.6217 76.2186 64.0869 76.1912C64.2748 76.1801 64.7363 76.1371 65.1123 76.0959Z" fill="black" stroke="black"/>
</g>
</g>
<defs>
<clipPath id="clip0_56_2">
<rect width="100" height="100" fill="white"/>
</clipPath>
<clipPath id="clip1_56_2">
<rect width="100" height="100" fill="white"/>
</clipPath>
</defs>
</svg>
